# xmcd
#
# Track frame offsets: 
#        150
#        13930
#        28784
#        42909
#        58853
#        74991
#        91744
#        107701
#        122550
#        137406
#        151284
#        166569
#
# Disc length: 2408 seconds
#
# Revision: 0
# Processed by: cddbd v1.5.2PL0 Copyright (c) Steve Scherf et al.
# Submitted via: ExactAudioCopy v0.99pb4
#
DISCID=9c09660c
DTITLE=Lindsay - Dichtbij
DYEAR=2015
DGENRE=Chanson
TTITLE0=Dichtbij
TTITLE1=Jij Alleen
TTITLE2=Duizend En Eén Nacht (Met Jan Smit)
TTITLE3=Het Mooiste Meisje
TTITLE4=Door Jou
TTITLE5=Hou Me Nog Een Keertje Vast
TTITLE6=Weet Je Wat Je Voor Mij Bent
TTITLE7=Het Kleine Meisje
TTITLE8=Ik Mis Je Meer En Meer
TTITLE9=Blijf Je Dan De Hele Nacht
TTITLE10=Duizend Zoenen
TTITLE11=Tijd Voor Gezelligheid
EXTD=
EXTT0=
EXTT1=
EXTT2=
EXTT3=
EXTT4=
EXTT5=
EXTT6=
EXTT7=
EXTT8=
EXTT9=
EXTT10=
EXTT11=
PLAYORDER=
